<?xml version="1.0" encoding="UTF-8"?>
<svg width="800" height="600" viewBox="0 0 800 600" xmlns="http://www.w3.org/2000/svg">
  <!-- Background -->
  <rect width="800" height="600" fill="#f0f9ff"/>
  
  <!-- Mountain Range -->
  <path d="M0 400 L200 200 L400 350 L600 150 L800 300 L800 600 L0 600 Z" fill="#94a3b8"/>
  
  <!-- Sun -->
  <circle cx="650" cy="100" r="60" fill="#fbbf24"/>
  
  <!-- Path -->
  <path d="M100 500 Q400 300 700 500" stroke="#4b5563" stroke-width="8" fill="none"/>
  
  <!-- Trees -->
  <path d="M150 450 L150 350 L200 400 L150 450" fill="#166534"/>
  <path d="M300 500 L300 400 L350 450 L300 500" fill="#166534"/>
  <path d="M500 450 L500 350 L550 400 L500 450" fill="#166534"/>
  
  <!-- Adventure Character -->
  <circle cx="400" cy="450" r="20" fill="#1e40af"/>
  <path d="M400 470 L400 500" stroke="#1e40af" stroke-width="4"/>
  <path d="M400 500 L380 530" stroke="#1e40af" stroke-width="4"/>
  <path d="M400 500 L420 530" stroke="#1e40af" stroke-width="4"/>
</svg> 